HIERARCHY
ROOT Hips
{
  OFFSET -61.9187 98.5263 56.1589
  CHANNELS 6 Xposition Yposition Zposition Zrotation Xrotation Yrotation
  JOINT ToSpine
  {
    OFFSET -2.69724 7.43032 -0.144315
    CHANNELS 3 Zrotation Xrotation Yrotation
    JOINT Spine
    {
      OFFSET -0.0310711 10.7595 1.96963
      CHANNELS 3 Zrotation Xrotation Yrotation
      JOINT Spine1
      {
        OFFSET 13.1342 3.43533 0.764692
        CHANNELS 3 Zrotation Xrotation Yrotation
        JOINT Neck
        {
          OFFSET 29.8703 7.82586 -0.130764
          CHANNELS 3 Zrotation Xrotation Yrotation
          JOINT Head
          {
            OFFSET 9.52751 0.295786 -0.907742
            CHANNELS 3 Zrotation Xrotation Yrotation
            End Site
            {
              OFFSET 16.4037 0.713936 2.7358
            }
          }
        }
        JOINT LeftShoulder
        {
          OFFSET 27.5574 4.95586 2.47156
          CHANNELS 3 Zrotation Xrotation Yrotation
          JOINT LeftArm
          {
            OFFSET 1.20734 -0.998971 20.1238
            CHANNELS 3 Zrotation Xrotation Yrotation
            JOINT LeftForeArm
            {
              OFFSET 26.8049 -0.0536703 -0.155908
              CHANNELS 3 Zrotation Xrotation Yrotation
              JOINT LeftHand
              {
                OFFSET 26.6817 0 0.320147
                CHANNELS 3 Zrotation Xrotation Yrotation
                End Site
                {
                  OFFSET 18.6119 0 0.382219
                }
              }
            }
          }
        }
        JOINT RightShoulder
        {
          OFFSET 27.5927 4.71444 -2.65209
          CHANNELS 3 Zrotation Xrotation Yrotation
          JOINT RightArm
          {
            OFFSET 2.83739 -1.17114 -18.7564
            CHANNELS 3 Zrotation Xrotation Yrotation
            JOINT RightForeArm
            {
              OFFSET 28.839 -0.0548439 1.22491
              CHANNELS 3 Zrotation Xrotation Yrotation
              JOINT RightHand
              {
                OFFSET 26.5114 0 -0.101894
                CHANNELS 3 Zrotation Xrotation Yrotation
                End Site
                {
                  OFFSET 18.2168 0 0
                }
              }
            }
          }
        }
      }
    }
  }
  JOINT LeftUpLeg
  {
    OFFSET -4.76168 -1.9167 -10.2353
    CHANNELS 3 Zrotation Xrotation Yrotation
    JOINT LeftLeg
    {
      OFFSET 2.55951 -42.0585 -8.02213
      CHANNELS 3 Zrotation Xrotation Yrotation
      JOINT LeftFoot
      {
        OFFSET 3.16357 -42.5282 -3.95426
        CHANNELS 3 Zrotation Xrotation Yrotation
        JOINT LeftToeBase
        {
          OFFSET 0.346054 -6.02161 12.8035
          CHANNELS 3 Zrotation Xrotation Yrotation
          End Site
          {
            OFFSET 0.134235 -1.35082 5.13018
          }
        }
      }
    }
  }
  JOINT RightUpLeg
  {
    OFFSET -4.94151 -1.41743 10.6446
    CHANNELS 3 Zrotation Xrotation Yrotation
    JOINT RightLeg
    {
      OFFSET -2.56294 -42.0364 -7.94377
      CHANNELS 3 Zrotation Xrotation Yrotation
      JOINT RightFoot
      {
        OFFSET -3.0952 -42.555 -4.02241
        CHANNELS 3 Zrotation Xrotation Yrotation
        JOINT RightToeBase
        {
          OFFSET -0.0828122 -6.13587 12.8035
          CHANNELS 3 Zrotation Xrotation Yrotation
          End Site
          {
            OFFSET -0.131328 -1.35082 5.13018
          }
        }
      }
    }
  }
}
MOTION
Frames:	6
Frame Time:	0.00833333
-61.651 97.3518 47.8297 -3.44797 -63.9488 -93.0906 -70.1915 0 88.8779 79.1812 71.429 10.624 5.83661 21.549 -0.780638 -162.35 19.1643 -179.49 -149.282 59.199 -165.693 -1.22624 -18.3354 -38.6132 -67.6572 40.0311 -87.4716 4.21845 23.8478 -23.306 0.420957 0.000575394 0.35866 -2.53926 6.72147 51.7537 -83.4832 -23.43 87.2377 -9.67693 -37.2858 9.18722 0.58676 0.000331471 0.0646654 -44.2832 2.3359 97.0601 -1.09633 26.1679 -12.9945 2.04047 -9.26223 -0.918503 5.63178 -12.8723 6.48238 -45.6124 0.546493 83.0827 0.338297 19.8752 7.77824 -2.55136 -5.29127 0.773126 1.75512 -10.5541 -6.87992 
-61.6373 97.3545 48.0354 -3.64428 -64.1948 -93.287 -70.1915 0 88.8779 79.2064 71.4646 10.7123 5.81904 21.6024 -0.824144 -162.337 19.1972 -179.208 -149.666 59.2653 -165.45 -1.26561 -18.4698 -38.6424 -67.8651 39.6079 -87.9638 4.32762 23.9371 -23.3499 0.420957 0.000575394 0.35866 -2.55109 6.76601 51.6794 -83.5491 -23.4735 88.2155 -9.54326 -37.4366 9.31057 0.58676 0.000331471 0.0646654 -44.5837 2.22506 96.9826 -1.03812 26.2763 -13.1054 2.49442 -8.87857 -0.918104 4.99449 -11.7141 6.49242 -45.8944 0.606655 83.097 0.288926 19.9961 7.60962 -2.97047 -5.06252 0.796817 1.61664 -9.47591 -6.21259 
-61.6321 97.3536 48.2387 -3.89853 -64.4636 -93.5154 -70.1915 0 88.8779 79.4132 71.5174 10.6343 5.75048 21.6528 -0.810836 -162.34 19.233 -178.817 -150.155 59.3483 -165.112 -1.3205 -18.616 -38.8211 -67.9378 39.1502 -88.5336 4.44876 24.0002 -23.4167 0.420957 0.000575394 0.35866 -2.5719 6.8456 51.5434 -83.5515 -23.5175 89.2126 -9.37038 -37.5924 9.48617 0.58676 0.000331471 0.0646654 -44.8769 2.08849 96.8079 -0.922034 26.4556 -13.128 3.06163 -8.57424 -0.93154 4.33128 -10.498 6.51924 -46.2137 0.727011 83.1423 0.221355 20.1056 7.48143 -3.56289 -4.82929 0.834164 1.52708 -8.7416 -5.69551 
-61.6317 97.3531 48.4418 -4.1736 -64.7299 -93.7541 -70.1915 0 88.8779 79.6094 71.5735 10.5704 5.68101 21.7028 -0.77886 -162.339 19.2662 -178.436 -150.614 59.4246 -164.806 -1.38639 -18.7693 -39.0927 -67.9314 38.6517 -89.1638 4.57643 24.073 -23.4926 0.420957 0.000575394 0.35866 -2.59859 6.95053 51.3618 -83.4258 -23.5274 90.2718 -9.1761 -37.6493 9.71206 0.58676 0.000331471 0.0646654 -45.1619 1.97233 96.6172 -0.799034 26.6603 -13.053 3.59496 -8.39349 -0.951002 3.64849 -9.23016 6.41144 -46.5368 0.867195 83.1972 0.153508 20.2147 7.40758 -4.24036 -4.59171 0.880479 1.47498 -8.24877 -5.35427 
-61.6323 97.3511 48.6447 -4.43057 -64.9689 -93.9792 -70.1915 0 88.8779 79.6009 71.619 10.7026 5.66082 21.7551 -0.766417 -162.312 19.2923 -178.183 -150.908 59.4721 -164.661 -1.45633 -18.9239 -39.385 -67.9026 38.1067 -89.8369 4.70526 24.1911 -23.5638 0.420957 0.000575394 0.35866 -2.62504 7.05341 51.1976 -83.1099 -23.4614 91.4291 -8.98071 -37.5037 9.98477 0.58676 0.000331471 0.0646654 -45.4368 1.91782 96.4938 -0.720345 26.845 -12.8708 3.94703 -8.38056 -0.96872 2.96644 -7.91516 6.0197 -46.83 0.989115 83.2379 0.10327 20.3342 7.40203 -4.91452 -4.34991 0.931083 1.44246 -7.89406 -5.21666 
-61.6299 97.346 48.8473 -4.67996 -65.1642 -94.2041 -70.1915 0 88.8779 79.2772 71.65 11.1419 5.71673 21.8149 -0.788756 -162.255 19.3084 -178.128 -150.945 59.4763 -164.776 -1.52224 -19.0756 -39.6259 -67.8468 37.4938 -90.5513 4.84595 24.3914 -23.6325 0.420957 0.000575394 0.35866 -2.64575 7.12625 51.1133 -82.5237 -23.2631 92.7141 -8.78106 -37.0608 10.3328 0.58676 0.000331471 0.0646654 -45.7002 1.95029 96.4717 -0.701242 26.9894 -12.4999 4.00637 -8.65444 -0.984628 2.24661 -6.39303 5.1294 -47.0769 1.0926 83.2557 0.084715 20.4605 7.54887 -5.68718 -4.03499 0.996623 1.4608 -7.8114 -5.4889 
